<svg width="72" height="84" viewBox="0 0 72 84" fill="none" xmlns="http://www.w3.org/2000/svg">
<g clip-path="url(#clip0_18711_549)" filter="url(#filter0_d_18711_549)">
<path d="M65.1 22.5H65H40.3C54.1 15.6 55.2 11.2 54.7 8.79997C53.5 4.79997 49 1.79997 44.7 3.39997C39.1 5.49997 37.6 13.8 36.1 19.8C34.1 13.7 32.3 5.99997 27.9 2.09997C26.6 0.999966 24.8 -0.200034 22.1 0.0999663C18.1 0.499966 12.3 5.49997 14.6 11.1C16.9 16.5 24.3 19.9 29.2 22.6H7.2H6.9C5.3 22.6 4 23.9 4 25.5V36.8C4 38.4 5.3 39.7 6.9 39.7H7.2V73V75.4V76H65V75.5V73V39.6H65.1C66.7 39.6 68 38.3 68 36.7V25.4C68 23.8 66.7 22.5 65.1 22.5ZM46.4 5.89997C48.5 5.59997 51.4 7.19997 51.7 9.09997C52.1 11.9 48.3 14.4 46.6 15.5C44.1 17.2 41.7 18.1 39.3 19.6C40.2 15.9 41.8 6.59997 46.4 5.89997ZM23.5 15.9C21.3 14.4 17 11.5 17.1 8.09997C17.2 4.49997 22.8 1.49997 25.9 4.19997C29.8 7.59997 31.6 15.3 33 20.8C29.8 19.3 26.7 18 23.5 15.9ZM29.5 73H10.1V39.6H29.5V73ZM29.5 36.5H7V25.5H29.5V36.5ZM39.7 36.5V39.5V73H32.5V39.6V36.6V25.6H39.7V36.5ZM62 73H42.6V39.6H62V73ZM64.9 36.5H42.6V25.5H64.9V36.5Z" fill="#81B3D2"/>
</g>
<defs>
<filter id="filter0_d_18711_549" x="0" y="0" width="72" height="84" filterUnits="userSpaceOnUse" color-interpolation-filters="sRGB">
<feFlood flood-opacity="0" result="BackgroundImageFix"/>
<feColorMatrix in="SourceAlpha" type="matrix" values="0 0 0 0 0 0 0 0 0 0 0 0 0 0 0 0 0 0 127 0" result="hardAlpha"/>
<feOffset dy="4"/>
<feGaussianBlur stdDeviation="2"/>
<feComposite in2="hardAlpha" operator="out"/>
<feColorMatrix type="matrix" values="0 0 0 0 0 0 0 0 0 0 0 0 0 0 0 0 0 0 0.25 0"/>
<feBlend mode="normal" in2="BackgroundImageFix" result="effect1_dropShadow_18711_549"/>
<feBlend mode="normal" in="SourceGraphic" in2="effect1_dropShadow_18711_549" result="shape"/>
</filter>
<clipPath id="clip0_18711_549">
<rect width="64" height="76" fill="white" transform="translate(4)"/>
</clipPath>
</defs>
</svg>
